<svg xmlns="http://www.w3.org/2000/svg" width="18" height="18" viewBox="0 0 18 18">
    <path fill="#FFF" fill-rule="evenodd" d="M.009 14.205a.87.87 0 0 0 .266.763l2.535 2.517c.114.127.263.235.447.324.185.09.366.146.543.172.013 0 .051.003.115.01.063.006.146.009.248.009.241 0 .632-.041 1.172-.124.54-.083 1.2-.286 1.981-.61.782-.324 1.668-.81 2.658-1.459.991-.648 2.046-1.538 3.164-2.67.889-.876 1.626-1.715 2.21-2.516.584-.801 1.054-1.542 1.41-2.222.356-.68.623-1.296.8-1.85.178-.552.3-1.029.363-1.43.063-.4.089-.714.076-.943-.013-.229-.02-.356-.02-.382a1.854 1.854 0 0 0-.17-.543 1.429 1.429 0 0 0-.325-.448L14.948.267a.84.84 0 0 0-.61-.267.71.71 0 0 0-.438.143 1.325 1.325 0 0 0-.324.353l-2.039 3.87a.928.928 0 0 0-.095.668c.05.241.159.445.324.61l.933.934a.318.318 0 0 1 .067.124.47.47 0 0 1 .029.143c-.051.267-.165.572-.343.916a8.403 8.403 0 0 1-.705 1.115c-.318.439-.769.944-1.353 1.516-.572.585-1.08 1.04-1.525 1.363a8.803 8.803 0 0 1-1.114.715c-.299.153-.528.245-.686.277l-.239.047a.454.454 0 0 1-.123-.028.318.318 0 0 1-.124-.067l-1.086-1.106a1.167 1.167 0 0 0-.8-.305c-.217 0-.388.038-.515.114h-.02L.486 13.576c-.267.166-.426.375-.476.63z"/>
</svg>
