<?xml version="1.0" encoding="utf-8"?>
<!-- Svg Vector Icons : http://www.onlinewebfonts.com/icon -->
<!DOCTYPE svg PUBLIC "-//W3C//DTD SVG 1.1//EN" "http://www.w3.org/Graphics/SVG/1.1/DTD/svg11.dtd">
<svg version="1.1" xmlns="http://www.w3.org/2000/svg" xmlns:xlink="http://www.w3.org/1999/xlink" x="0px" y="0px" viewBox="0 0 1000 1000" enable-background="new 0 0 1000 1000" xml:space="preserve">
<metadata> Svg Vector Icons : http://www.onlinewebfonts.com/icon </metadata>
<g><path d="M953.7,473.5c0-81.4-21.7-157.7-59.1-223.9c18.6,0.5,34.9-4.2,46.2-15.5c33-33.1,13.3-106.4-44.2-163.9C839.1,12.7,765.8-7,732.7,26c-11.7,11.8-16.5,28.7-15.6,48.2c-64.9-35.6-139.4-56-218.7-56c-70,0-136,16.2-195.3,44.5c-1.2-14.6-5.9-27.3-15.2-36.7C254.9-7,181.5,12.7,124,70.2C66.6,127.7,46.8,201,79.9,234.1c6.5,6.5,14.9,10.4,24.1,12.9c-38.4,66.7-60.7,143.9-60.7,226.5c0,149.5,72.4,281.8,183.8,364.9l-96.4,96.4l55.3,55.2l109.5-109.5c61.2,30.6,130,48.2,203,48.2c73.1,0,141.9-17.7,203-48.2L810.9,990l55.3-55.2l-96.4-96.4C881.3,755.4,953.7,623.1,953.7,473.5z M118.8,492.8h64.8c10.7,0,19.3-8.7,19.3-19.3c0-10.6-8.7-19.3-19.3-19.3h-64.8c9.8-194.8,165.7-350.7,360.6-360.4c0,0.3-0.2,0.6-0.2,0.9v70.8c0,10.7,8.7,19.3,19.3,19.3c10.7,0,19.3-8.7,19.3-19.3V94.7c0-0.3-0.2-0.6-0.2-0.9c194.8,9.7,350.7,165.5,360.5,360.4h-65.4c-10.7,0-19.3,8.7-19.3,19.3c0,10.7,8.7,19.3,19.3,19.3h65.4c-9.8,194.8-165.6,350.6-360.4,360.4v-67.9c0-10.6-8.7-19.3-19.3-19.3s-19.3,8.7-19.3,19.3v67.9C284.4,843.4,128.6,687.6,118.8,492.8z"/><path d="M495,492.1c0.8,0.4,1.8,0.7,3.5,0.7h248.1c10.7,0,19.3-8.7,19.3-19.3c0-10.6-8.7-19.3-19.3-19.3H517.8V244.7c0-10.6-8.7-19.3-19.3-19.3c-10.7-0.1-19.3,8.6-19.3,19.3l0,228.8C479.1,483,486.1,490.4,495,492.1z"/></g>
</svg>