<?xml version="1.0" encoding="utf-8"?>
<!-- Svg Vector Icons : http://www.onlinewebfonts.com/icon -->
<!DOCTYPE svg PUBLIC "-//W3C//DTD SVG 1.1//EN" "http://www.w3.org/Graphics/SVG/1.1/DTD/svg11.dtd">
<svg version="1.1" xmlns="http://www.w3.org/2000/svg" xmlns:xlink="http://www.w3.org/1999/xlink" x="0px" y="0px" viewBox="0 0 1000 1000" enable-background="new 0 0 1000 1000" xml:space="preserve">
<g><path d="M499.9,791c0,0-0.1,0-0.1,0c-10.1,0-19.7-4.4-26.2-12.1c-10-11.7-21-24.2-32.5-37.3C338,624.1,199,471.1,199,327.1c0-167.1,135.9-303,303-303c167.1,0,303,135.9,303,303c0,146.9-146.3,302.1-251.6,421.1c-9.6,10.8-18.7,21.1-27.2,30.9C519.5,786.6,509.9,791,499.9,791z M501.9,93.7c-128.7,0-233.4,104.7-233.4,233.4c0,159.1,165.3,295.4,233.6,379.9c67.8-88.4,233.1-220,233.1-379.9C735.3,198.4,630.6,93.7,501.9,93.7z"/><path d="M501.9,442.1c-72.9,0-132.2-59.3-132.2-132.3c0-72.9,59.3-132.3,132.2-132.3c72.9,0,132.3,59.3,132.3,132.3C634.2,382.7,574.9,442.1,501.9,442.1z M501.9,247.2c-34.5,0-62.6,28.1-62.6,62.6s28.1,62.6,62.6,62.6c34.5,0,62.6-28.1,62.6-62.6S536.5,247.2,501.9,247.2z"/><path d="M955.2,975.9H44.8c-12,0-23.1-6.2-29.5-16.3c-6.4-10.2-7.1-22.9-1.8-33.7l134.3-278c5.8-12,18-19.6,31.3-19.6h78.1c19.2,0,34.8,15.6,34.8,34.8c0,19.2-15.6,34.8-34.8,34.8h-56.3L100.4,906.3h801.5l-91-208.4h-67.7c-19.2,0-34.8-15.6-34.8-34.8c0-19.2,15.6-34.8,34.8-34.8h90.4c13.8,0,26.3,8.2,31.9,20.8l121.5,278.1c4.7,10.8,3.7,23.2-2.7,33C977.9,969.9,967,975.9,955.2,975.9z"/></g>
</svg>
