<svg xmlns="http://www.w3.org/2000/svg" width="25" height="26" viewBox="0 0 25 26">
    <g fill="#FFF" fill-rule="nonzero">
        <path d="M20.206 15.903c-.524-.566-1.156-.869-1.823-.869s-1.302.297-1.847.863l-1.707 1.764c-.14-.078-.28-.151-.416-.224-.194-.1-.378-.196-.535-.297-1.598-1.05-3.051-2.425-4.445-4.2-.675-.885-1.128-1.63-1.458-2.386.443-.42.854-.857 1.253-1.277.151-.156.303-.319.454-.476 1.134-1.176 1.134-2.7 0-3.875l-1.477-1.53c-.168-.173-.338-.35-.503-.532-.324-.35-.664-.705-1.012-1.041C6.163 1.285 5.536 1 4.878 1c-.659 0-1.297.285-1.837.823l-.01.01-1.837 1.922A4.163 4.163 0 0 0 .022 6.36c-.13 1.635.338 3.158.691 4.155.878 2.45 2.182 4.716 4.132 7.146 2.363 2.93 5.212 5.242 8.464 6.872 1.242.61 2.903 1.33 4.753 1.456.113.005.232.011.337.011 1.248 0 2.296-.465 3.117-1.389.005-.011.016-.017.021-.028.297-.356.612-.694.945-1.014.233-.23.473-.47.702-.722.535-.577.816-1.249.816-1.938 0-.689-.286-1.36-.832-1.92l-2.962-3.086zm1.933 5.893c-.005 0-.005.006 0 0-.21.235-.426.448-.659.683-.366.355-.714.728-1.042 1.12-.545.605-1.188.891-2.03.891-.082 0-.168 0-.25-.006-1.603-.106-3.094-.756-4.212-1.31a24.143 24.143 0 0 1-7.972-6.47C4.132 14.4 2.903 12.275 2.085 9.988c-.502-1.395-.686-2.481-.607-3.506a2.61 2.61 0 0 1 .75-1.664l1.84-1.91c.264-.258.545-.398.82-.398.338 0 .616.21.789.392l.016.017c.33.32.643.65.972 1.003l.513.543 1.475 1.529c.572.593.572 1.142 0 1.736-.157.162-.308.325-.465.482-.453.481-.885.93-1.355 1.366-.011.011-.022.017-.027.028-.465.482-.378.952-.281 1.271l.016.05c.384.964.924 1.871 1.745 2.952l.005.006c1.49 1.904 3.062 3.388 4.794 4.525.215.137.436.262.664.375.194.1.378.196.535.297.021.011.043.028.067.04.165.09.348.137.535.14.448 0 .729-.292.82-.387l1.847-1.915c.184-.19.473-.42.816-.42.343 0 .607.218.777.409l2.988 3.096c.556.571.556 1.16.005 1.75zM13.545 5.313a6.31 6.31 0 0 1 5.137 5.136.657.657 0 0 0 .765.541.662.662 0 0 0 .544-.764 7.627 7.627 0 0 0-6.215-6.217.665.665 0 0 0-.658 1.033c.1.144.254.242.427.27z"/>
        <path d="M24.99 11.163A13.675 13.675 0 0 0 13.858.013a.718.718 0 0 0-.81.968.72.72 0 0 0 .575.454c5.086.88 9.068 4.87 9.947 9.964a.715.715 0 0 0 .832.59.706.706 0 0 0 .586-.822v-.004z"/>
    </g>
</svg>
