<svg xmlns="http://www.w3.org/2000/svg" id="regular" enable-background="new 0 0 24 24" viewBox="0 0 24 24" width="512" height="512"><path d="m 12.145 19.5 c 3.472 0 2.234 -2.198 2.502 -2.83 c -0.004 -0.472 -0.008 -0.926 0.008 -1.202 c 0.22 0.062 0.739 0.325 1.811 1.367 c 1.655 1.67 2.078 2.665 3.415 2.665 h 2.461 c 0.78 0 1.186 -0.323 1.389 -0.594 c 0.196 -0.262 0.388 -0.722 0.178 -1.438 c -0.549 -1.724 -3.751 -4.701 -3.95 -5.015 c 0.03 -0.058 0.078 -0.135 0.103 -0.175 h -0.002 c 0.632 -0.835 3.044 -4.449 3.399 -5.895 c 0.001 -0.002 0.002 -0.005 0.002 -0.008 c 0.192 -0.66 0.016 -1.088 -0.166 -1.33 c -0.274 -0.362 -0.71 -0.545 -1.299 -0.545 h -2.461 c -0.824 0 -1.449 0.415 -1.765 1.172 c -0.529 1.345 -2.015 4.111 -3.129 5.09 c -0.034 -1.387 -0.011 -2.446 0.007 -3.233 c 0.036 -1.535 0.152 -3.029 -1.441 -3.029 h -3.868 c -0.998 0 -1.953 1.09 -0.919 2.384 c 0.904 1.134 0.325 1.766 0.52 4.912 c -0.76 -0.815 -2.112 -3.016 -3.068 -5.829 c -0.268 -0.761 -0.674 -1.466 -1.817 -1.466 h -2.461 c -0.998 0 -1.594 0.544 -1.594 1.455 c 0 2.046 4.529 13.544 12.145 13.544 Z m -8.09 -13.499 c 0.217 0 0.239 0 0.4 0.457 c 0.979 2.883 3.175 7.149 4.779 7.149 c 1.205 0 1.205 -1.235 1.205 -1.7 l -0.001 -3.702 c -0.066 -1.225 -0.512 -1.835 -0.805 -2.205 l 3.508 0.004 c 0.002 0.017 -0.02 4.095 0.01 5.083 c 0 1.403 1.114 2.207 2.853 0.447 c 1.835 -2.071 3.104 -5.167 3.155 -5.293 c 0.075 -0.18 0.14 -0.241 0.376 -0.241 h 2.461 h 0.01 c -0.001 0.003 -0.001 0.006 -0.002 0.009 c -0.225 1.05 -2.446 4.396 -3.189 5.435 c -0.012 0.016 -0.023 0.033 -0.034 0.05 c -0.327 0.534 -0.593 1.124 0.045 1.954 h 0.001 c 0.058 0.07 0.209 0.234 0.429 0.462 c 0.684 0.706 3.03 3.12 3.238 4.08 c -0.138 0.022 -0.288 0.006 -2.613 0.011 c -0.495 0 -0.882 -0.74 -2.359 -2.23 c -1.328 -1.292 -2.19 -1.82 -2.975 -1.82 c -1.524 0 -1.413 1.237 -1.399 2.733 c 0.005 1.622 -0.005 1.109 0.006 1.211 c -0.089 0.035 -0.344 0.105 -1.009 0.105 c -6.345 0 -10.477 -10.071 -10.636 -11.996 c 0.055 -0.005 0.812 -0.002 2.546 -0.003 Z" /></svg>